# xmcd
#
# Track frame offsets: 
#        150
#        11059
#        22886
#        32984
#        44763
#        58907
#        73172
#        86011
#        99804
#        109494
#        123890
#        135314
#        149372
#        160898
#        174219
#        187678
#        200875
#        214786
#        227074
#        239840
#        253151
#        263694
#        278345
#        297884
#        311095
#
# Disc length: 4323 seconds
#
# Revision: 0
# Processed by: cddbd v1.5.2PL0 Copyright (c) Steve Scherf et al.
# Submitted via: ExactAudioCopyFreeDBPlugin 1.0
#
DISCID=7010e119
DTITLE=John Lee Hooker - Heroes Collection
DYEAR=2012
DGENRE=Blues
TTITLE0=Boom Boom
TTITLE1=Wiskey and Wimmen
TTITLE2=Want ad Blues
TTITLE3=Hug and Squeeze
TTITLE4=Boogie Chillen
TTITLE5=Four women in my life
TTITLE6=Devil´s jump
TTITLE7=Alberta
TTITLE8=Dimples
TTITLE9=Do the Boogie
TTITLE10=Queen Bee
TTITLE11=Stomp Boogie
TTITLE12=Little Wheel
TTITLE13=Slim´s Stomp
TTITLE14=Black Cat Blues
TTITLE15=Hoogie Boogie
TTITLE16=Who´s been jiving you
TTITLE17=High priced women
TTITLE18=Rock House Boogie
TTITLE19=Too much Boogie
TTITLE20=Maudie
TTITLE21=Baby, plaese don´t go
TTITLE22=House rent Boogie
TTITLE23=Please take me back
TTITLE24=Nightmare Blues
EXTD=
EXTT0=
EXTT1=
EXTT2=
EXTT3=
EXTT4=
EXTT5=
EXTT6=
EXTT7=
EXTT8=
EXTT9=
EXTT10=
EXTT11=
EXTT12=
EXTT13=
EXTT14=
EXTT15=
EXTT16=
EXTT17=
EXTT18=
EXTT19=
EXTT20=
EXTT21=
EXTT22=
EXTT23=
EXTT24=
PLAYORDER=
